<svg width="32" height="32" viewBox="0 0 32 32" fill="none" xmlns="http://www.w3.org/2000/svg">
<path d="M16 32C24.8366 32 32 24.8366 32 16C32 7.16344 24.8366 0 16 0C7.16344 0 0 7.16344 0 16C0 24.8366 7.16344 32 16 32Z" fill="black"/>
<path d="M16 5.86877C10.4062 5.86877 5.86873 10.4063 5.86873 16C5.86873 20.4063 8.68123 24.15 12.6062 25.55C12.625 25.5563 12.6937 25.5813 12.7125 25.5875C12.7687 25.6063 12.8312 25.6188 12.8937 25.6188C13.225 25.6188 13.4875 25.35 13.4875 25.025C13.4875 25.0063 13.4875 24.9938 13.4875 24.975C13.4875 24.4375 13.4875 23.7563 13.4875 23.2125C12.8437 23.3438 11.8687 23.4688 11.3375 23.2125C10.65 22.8813 10.3 22.4563 9.96873 21.6188C9.55623 20.6 8.60623 20.3188 8.56873 20.1438C8.53123 19.9625 9.57498 19.6938 10.1125 20.3125C10.65 20.9313 11.1937 22.1688 12.35 22.05C12.9187 21.9938 13.2875 21.9 13.5187 21.8313C13.5625 21.4313 13.6937 20.9375 14.025 20.5875C11.3062 20.1375 9.49373 18.675 9.49373 15.8063C9.49373 14.5 9.86873 13.4875 10.5312 12.7313C10.4187 12.1063 10.2312 10.6563 10.7312 10.15C10.7312 10.15 11.4375 9.71252 13.4625 11.1375C14.2187 10.9625 15.0562 10.875 15.95 10.875C15.9687 10.875 15.9812 10.875 16 10.875C16.0187 10.875 16.0312 10.875 16.05 10.875C16.95 10.8813 17.7875 10.9688 18.5375 11.1375C20.5625 9.71252 21.2687 10.15 21.2687 10.15C21.7687 10.6625 21.5812 12.1125 21.4687 12.7313C22.1312 13.4938 22.5062 14.5063 22.5062 15.8063C22.5062 18.675 20.7 20.1375 17.975 20.5875C18.4937 21.1313 18.5125 22.0125 18.5125 22.375C18.5125 22.7188 18.5125 25.0188 18.5125 25.0313C18.5125 25.3625 18.7812 25.625 19.1062 25.625C19.1562 25.625 19.2 25.6188 19.25 25.6063C19.2625 25.6063 19.3 25.5938 19.3125 25.5875C23.2812 24.2125 26.1312 20.4438 26.1312 16.0063C26.1312 10.4 21.5937 5.86877 16 5.86877Z" fill="white"/>
</svg>
